<svg version="1.0" xmlns="http://www.w3.org/2000/svg" width="220" height="220" viewBox="0 0 165 165"><path d="M21.5 29c-7.8 1.7-15.7 7.8-19.2 14.9C1.1 46.4.5 49.8.5 55c0 6.4.4 8 2.5 11 4 5.7 8.3 8.6 14.7 9.7 6.5 1.1 10.3.7 11.8-1.3 2.5-3.3 1.8-4.1-3.2-3.9-18.2.6-25.4-14.6-13-27.4 12.4-12.8 33.9-3.5 33.9 14.6-.1 8.3-.9 11.4-5.5 21.6-2.9 6.4-3.4 6.9-9.9 10.4-11.8 6.2-19.2 17-15.5 22.7 1.9 2.9 7 4.2 10.8 2.8 1.4-.6 4.4-2.9 6.7-5.2 4.3-4.4 11.8-17.5 10.4-18.3-1.7-1.1-10 3.5-11.1 6.2-2.5 6-12 13.8-13.6 11.1-1.9-3.1 5.5-11.5 14.3-15.9 9.7-4.8 20.2-7.3 20.2-4.7 0 .6-3.4 11.3-7.5 23.6-4.1 12.4-7.4 22.8-7.2 23.3.1.4 2.2-.3 4.7-1.5l4.5-2.3 8-22c7.8-21.4 8.2-22.2 13.3-27.2 5.8-5.8 6.6-7.8 2.7-7.1-1.4.3-2.5.3-2.5.1 0-.2 2.5-5.2 5.5-11.2 3-6 5.5-11.1 5.5-11.4 0-.7-9.1 1.7-11.5 3.1-1.1.6-4.2 6-6.9 12.1-4.8 10.8-5 11-9.4 12.5-3.2 1.1-4.3 1.2-3.9.3 5.4-12.8 6-14.8 6.5-21.8.3-6.1.1-8.4-1.6-12.2-2.6-6-9-12.7-14.5-15.5-4.6-2.3-12.9-3.3-18.2-2.2z"/><path d="M19.5 44c-4.3 2.1-7 5.4-5.9 7.2.5.7 1.6.1 3.1-1.8 2.7-3.4 2.8-2.8 1.3 7.6-.6 4-.6 6.8 0 7.4 1.5 1.5 1.7.7 2.9-8.8.6-5 1.6-9.5 2.2-10 .8-.8 1 0 .5 2.9-1.4 10.2-1.8 17.5-.8 17.5 1.1 0 2.2-3.3 2.2-6.7 0-1.2.5-2.5 1.2-2.9.8-.5 1 .7.5 4.4-.5 4.2-.3 5.2.8 5.2.8 0 1.5-.6 1.6-1.3 0-.6.2-2.1.4-3.2 1.2-6.5 1.6-19.5.6-19.5-.6 0-1.2.6-1.2 1.2-.1.7-.2 1.7-.4 2.3-.1.5-.3 2.5-.3 4.2-.1 1.8-.7 3.3-1.3 3.3-.8 0-1-1.7-.5-5.5.7-6.4-.2-6.9-6.9-3.5zm14.1.8c-.2.4-.7 3.9-1.1 7.7-.4 3.9-.9 8.2-1.1 9.7-.5 3.3 1.8 3.8 5.4 1.2 2.7-1.9 2-3.9-.9-2.4-1.6.9-1.9.7-1.7-1.5.1-1.4.8-2.5 1.5-2.5s1.3-.7 1.3-1.5-.4-1.5-1-1.5c-1.3 0-1.3-3.7-.1-4.5.6-.3 1.4.2 1.9 1.1.5.9 1.4 1.4 2.1 1 .7-.5.6-1.4-.6-3.2-1.8-2.8-4.9-4.8-5.7-3.6zm114.7 10.7c-1.8.8-3.3 2-3.3 2.7 0 2.7-9 24.1-11.6 27.6-3 4-8.3 9.1-9.6 9.3-.4.1-1.4.2-2 .3-2.2.4-3.8-1.5-3.8-4.3 0-3.2 3.1-10 5.5-12.5 1.8-1.7 1.9-1.7 3.1-.1 1.2 1.5 1.7 1.6 4.4.5 3.2-1.3 3.8-3.5 1.7-6.4-1.8-2.5-7-2.3-11.2.5-3.3 2.2-10.5 11.6-10.5 13.6 0 1.2-6.2 7.5-6.7 6.9-.6-.5 5.3-18.8 7.3-22.6.9-1.9 2.1-2.6 4.6-2.8 1.8-.2 4.2-.4 5.3-.7 1.1-.2 4.7-.4 8.1-.4 5.5-.1 6.2-.4 8.2-3 1.5-2 1.8-3 .9-3.3-.7-.3-6.3.2-12.4 1.1-12 1.7-12.7 1.6-10.3-3 1-1.7.7-1.9-2-1.9-3.1 0-7 3-7 5.4 0 1.6-2.5 2.5-15.6 5.6-4.9 1.2-9.6 2.5-10.4 3-3.2 2 .3 2 11 0 6.3-1.1 11.5-1.8 11.7-1.7.2.2-1.2 4.5-3.1 9.6-3.3 8.9-7.3 16.1-8.8 16.1-1.6 0-.6-5.8 2.1-12.7 1.6-4 2.7-7.4 2.5-7.6-.9-.8-14.6 2.2-17.1 3.8-8.5 5.6-14.6 22-9.3 25.2 2.6 1.7 7.1.6 10.3-2.3 2.6-2.4 2.6-2.4 3.7-.4 1.6 3 3.9 2.4 8-1.9l3.8-3.9.9 3.1c1.3 4.7 4.1 4.6 9.1-.5 3.5-3.5 4.2-3.9 4.2-2.2 0 2.7 4.1 6.4 7.1 6.4s8.2-3.1 12-7.3c3.3-3.6 3.5-3.4 1.4 1.6-.8 1.9-1.2 3.7-.9 4 1.4 1.4 6.1-1.7 8.3-5.6 3.2-5.6 7.1-10.7 8.2-10.7 1.2 0 1.1 3.4-.1 4.6-.5.5-1.3 3-1.6 5.5-.8 5.7 1.2 7 6 4 3.2-2 13.6-14.9 13.6-16.9 0-2-1.8-1.4-3.1 1-1.5 2.9-7.1 8.9-7.7 8.3-.3-.2 1-4.5 2.8-9.5 1.8-5 3-9.3 2.7-9.7-1.1-1-5.2.6-8.3 3.4-1.7 1.5-3.8 3.4-4.7 4.2-1.1.9.3-3.4 3.7-11.8 5.9-14.1 5.8-14.6-1.1-11.6zM86.5 80.7c-.3 1-1.4 4.8-2.3 8.5-1.3 4.9-2.3 7.1-4 7.9-5.1 2.8-5-3.5.1-12.1 3.1-5.1 7.8-8.4 6.2-4.3zm68.1 18.9c-1 2.5-.7 3.3 1.5 4.4 1.5.9 2.4.8 3.5-.1 1.8-1.5 1.4-5.1-.6-5.7-1.3-.5-1.3-.3-.2 1.1.8.9 1.1 2.1.8 2.6-.9 1.5-4.6.9-4.6-.7 0-1.2.3-1.2 1.5-.2 2 1.7 3.2.5 1.5-1.5-1.6-1.9-2.6-1.9-3.4.1zm-17.9 6c-.1.1-7 .4-15.2.8-25.5 1-54.5 5.6-56.7 8.9-1.9 2.8-3.1 5.1-3.9 7.9-.7 2.6-.6 2.9.9 2.3 7.4-3.1 18.2-6.7 23.9-8 10.3-2.5 8.7-2.2 25.3-4.9 5.2-.9 21.7-2.5 31.8-3 5.7-.4 10.1-2.1 8.7-3.4-.4-.5-14.3-1-14.8-.6z"/></svg>