<svg xmlns="http://www.w3.org/2000/svg" viewBox="0 0 330 330" style="enable-background:new 0 0 330 330" xml:space="preserve"><path d="M315 .001H15c-8.284 0-15 6.716-15 15v299.998c0 8.284 6.716 15 15 15h300c8.284 0 15-6.716 15-15V15.001c0-8.284-6.716-15-15-15zm-15 299.998H30V30.001h270v269.998z"/><path d="M84.394 245.606A14.948 14.948 0 0 0 95 250c3.838 0 7.678-1.465 10.606-4.394l59.393-59.392 59.391 59.392A14.952 14.952 0 0 0 234.997 250c3.838 0 7.678-1.465 10.606-4.394 5.858-5.857 5.858-15.355 0-21.213L186.212 165l59.394-59.393c5.858-5.857 5.858-15.355 0-21.213-5.857-5.858-15.354-5.858-21.213 0L165 143.788l-59.393-59.395c-5.859-5.858-15.355-5.858-21.213 0-5.858 5.857-5.858 15.355 0 21.213l59.393 59.395-59.393 59.393c-5.858 5.857-5.858 15.355 0 21.212z"/></svg>